<svg width="18" height="19" viewBox="0 0 18 19" fill="none" xmlns="http://www.w3.org/2000/svg">
<path d="M12.6 3.19599V1.99199C12.6 1.50666 12.4227 1.08666 12.068 0.731991C11.7133 0.377325 11.284 0.199991 10.78 0.199991H6.804C6.3 0.199991 5.87067 0.372658 5.516 0.717991C5.16133 1.06333 4.984 1.48799 4.984 1.99199V3.19599H0V18.792H17.584V3.19599H12.6ZM6.58 1.99199C6.58 1.95466 6.60333 1.91266 6.65 1.86599C6.69667 1.81932 6.748 1.79599 6.804 1.79599H10.78C10.836 1.79599 10.8873 1.81932 10.934 1.86599C10.9807 1.91266 11.004 1.95466 11.004 1.99199V3.19599H6.58V1.99199ZM15.988 17.196H1.596V4.79199H15.988V17.196Z" fill="black"/>
</svg>
