<svg width="18" height="19" viewBox="0 0 18 19" fill="none" xmlns="http://www.w3.org/2000/svg">
<path d="M1.484 7.48802C1.484 6.46135 1.74067 5.50469 2.254 4.61802C2.76733 3.73135 3.46733 3.03135 4.354 2.51802C5.24067 2.00469 6.202 1.74802 7.238 1.74802C8.274 1.74802 9.23533 2.00469 10.122 2.51802C11.0087 3.03135 11.7087 3.73135 12.222 4.61802C12.7353 5.50469 12.992 6.46602 12.992 7.50202C12.992 8.53802 12.7353 9.49935 12.222 10.386C11.7087 11.2727 11.0087 11.9727 10.122 12.486C9.23533 12.9994 8.274 13.256 7.238 13.256C6.202 13.256 5.24067 12.9994 4.354 12.486C3.46733 11.9727 2.76733 11.2727 2.254 10.386C1.74067 9.49935 1.484 8.53335 1.484 7.48802ZM7.224 0.236021C5.91733 0.236021 4.70867 0.562687 3.598 1.21602C2.48733 1.86935 1.61 2.75135 0.966 3.86202C0.322 4.97269 0 6.18602 0 7.50202C0 8.81802 0.322 10.0314 0.966 11.142C1.61 12.2527 2.48733 13.13 3.598 13.774C4.70867 14.418 5.91733 14.74 7.224 14.74C8.08267 14.74 8.904 14.6 9.688 14.32C10.472 14.04 11.1813 13.6387 11.816 13.116L16.744 18.072L17.808 17.008L12.852 12.08C13.3747 11.4454 13.776 10.736 14.056 9.95202C14.336 9.16802 14.476 8.34669 14.476 7.48802C14.476 6.18135 14.154 4.97269 13.51 3.86202C12.866 2.75135 11.9887 1.86935 10.878 1.21602C9.76733 0.562687 8.54933 0.245354 7.224 0.264021V0.236021Z" fill="black"/>
</svg>
