<svg width="138" height="17" viewBox="0 0 138 17" fill="none" xmlns="http://www.w3.org/2000/svg">
<g id="logo.svg">
<g id="Vector">
<path d="M21.5428 0.432194C23.2875 0.432194 24.6254 0.732506 25.5581 1.33472C26.4908 1.93693 26.9564 2.79655 26.9564 3.91517V4.49514C26.9564 6.14129 26.1682 7.19318 24.5936 7.65079C25.4421 7.79857 26.111 8.1386 26.6036 8.66931C27.0962 9.20002 27.3425 9.8499 27.3425 10.6158V11.6295C27.3425 12.8181 26.8801 13.7269 25.9553 14.3578C25.0306 14.987 23.6927 15.3016 21.94 15.3016H17V0.432194H21.5428ZM21.5428 2.55344H20.429V6.59414H21.5428C22.3103 6.59414 22.833 6.48292 23.1111 6.26205C23.3892 6.0396 23.529 5.62329 23.529 5.01155V4.38232C23.529 3.67206 23.3892 3.18902 23.1111 2.93479C22.833 2.68056 22.3103 2.55344 21.5428 2.55344ZM21.9432 8.71539H20.429V13.1788H21.9432C22.7107 13.1788 23.2319 13.0596 23.5052 12.8196C23.7801 12.5813 23.9167 12.1269 23.9167 11.4579V10.4346C23.9167 9.76569 23.7785 9.31283 23.5052 9.0729C23.2303 8.83456 22.7091 8.7138 21.9432 8.7138V8.71539Z" fill="black"/>
<path d="M29.3303 15.3L33.0134 0.432194H37.9678L41.6383 15.3H38.114L37.3989 11.9346H33.5839L32.8577 15.3H29.3303ZM34.0304 9.81335H36.9493L35.4843 2.82833L34.0304 9.81335Z" fill="black"/>
<path d="M49.2922 0C52.7323 0 54.4516 1.52698 54.4516 4.57935V5.01155H51.0242V4.57935C51.0242 3.71338 50.8891 3.08892 50.619 2.70121C50.3489 2.3151 49.9056 2.12125 49.2922 2.12125C48.6789 2.12125 48.2133 2.31987 47.948 2.71869C47.681 3.11752 47.5476 3.77217 47.5476 4.68422V10.9097C47.5476 11.871 47.681 12.5606 47.948 12.9817C48.2149 13.4012 48.663 13.6109 49.2922 13.6109C49.5989 13.6109 49.9167 13.5712 50.2424 13.4902C50.5698 13.4091 50.8303 13.3059 51.0242 13.1788V9.55912H49.4368V7.43787H54.4516V13.9589C53.8128 14.4801 53.0183 14.9059 52.065 15.2364C51.1116 15.5669 50.1868 15.7322 49.2907 15.7322C45.8426 15.7322 44.1186 14.1194 44.1186 10.8954V4.68422C44.1186 1.56035 45.8426 0 49.2907 0H49.2922Z" fill="black"/>
<path d="M63.0891 0C66.5292 0 68.2484 1.52698 68.2484 4.57935V5.01155H64.8211V4.57935C64.8211 3.71338 64.686 3.08892 64.4159 2.70121C64.1458 2.3151 63.7024 2.12125 63.0891 2.12125C62.4758 2.12125 62.0102 2.31987 61.7449 2.71869C61.4779 3.11752 61.3444 3.77217 61.3444 4.68422V10.9097C61.3444 11.871 61.4779 12.5606 61.7449 12.9817C62.0118 13.4012 62.4599 13.6109 63.0891 13.6109C63.3958 13.6109 63.7136 13.5712 64.0393 13.4902C64.3666 13.4091 64.6272 13.3059 64.8211 13.1788V9.55912H63.2337V7.43787H68.2484V13.9589C67.6097 14.4801 66.8152 14.9059 65.8618 15.2364C64.9085 15.5669 63.9837 15.7322 63.0875 15.7322C59.6395 15.7322 57.9155 14.1194 57.9155 10.8954V4.68422C57.9155 1.56035 59.6395 0 63.0875 0H63.0891Z" fill="black"/>
<path d="M70.7192 15.3L74.4024 0.432194H79.3568L83.0273 15.3H79.503L78.7879 11.9346H74.9729L74.2467 15.3H70.7192ZM75.4194 9.81335H78.3383L76.8732 2.82833L75.4194 9.81335Z" fill="black"/>
<path d="M90.5716 0C92.089 0 93.2919 0.311434 94.1817 0.934303C95.0699 1.55717 95.5132 2.4009 95.5132 3.4655V4.68422H92.0859V3.46868C92.0859 2.85375 91.9683 2.41044 91.7347 2.13873C91.5011 1.86702 91.1134 1.73037 90.5716 1.73037C90.0298 1.73037 89.6786 1.87019 89.445 2.14667C89.2114 2.42474 89.0939 2.86964 89.0939 3.48139V3.9978C89.0939 4.86378 89.5308 5.51683 90.4016 5.96015L93.2235 7.36319C94.8633 8.17197 95.6817 9.3605 95.6817 10.9304V11.9441C95.6817 13.1676 95.2415 14.1051 94.3612 14.7566C93.481 15.4065 92.2177 15.7322 90.57 15.7322C88.9223 15.7322 87.6924 15.3794 86.809 14.6755C85.9255 13.9716 85.4822 12.9674 85.4822 11.6645V10.4918H88.9095V11.6661C88.9095 12.4907 89.0383 13.0866 89.2972 13.4536C89.5547 13.8207 89.9789 14.0034 90.5684 14.0034C91.1976 14.0034 91.6362 13.8509 91.8825 13.5442C92.1288 13.2375 92.2511 12.7052 92.2511 11.9457V11.2593C92.2511 10.4918 91.8316 9.90234 90.9911 9.48603L88.6903 8.33563C87.729 7.85736 86.9837 7.27739 86.4562 6.59414C85.9271 5.91248 85.6633 5.18792 85.6633 4.42046V3.48139C85.6633 2.46128 86.1178 1.6255 87.0266 0.975615C87.9355 0.325735 89.1161 0 90.57 0H90.5716Z" fill="black"/>
<path d="M98.8326 15.3V0.432194H102.26V6.45749H105.737V0.432194H109.164V15.3H105.737V8.57874H102.26V15.3H98.8326Z" fill="black"/>
<path d="M112.629 15.3V0.432194H121V2.55344H116.058V6.45749H120.746V8.57874H116.058V13.1788H121V15.3H112.629Z" fill="black"/>
</g>
</g>
</svg>
