<svg width="200" height="30" viewBox="0 0 200 30" fill="none" xmlns="http://www.w3.org/2000/svg">
<g id="Logo">
<path d="M15.2895 16.3298C14.4495 15.7043 13.1628 15.2694 11.4321 15.0311C13.0585 14.8047 14.25 14.3907 15.0095 13.792C16.2338 12.8239 16.8652 10.9831 16.904 8.26655C16.8652 5.60064 16.2814 3.76876 15.1495 2.77984C13.9759 1.75518 11.7717 1.23987 8.5339 1.23987H0V29.4419H8.05433C11.6794 29.4419 14.1189 28.8909 15.3789 27.7918C16.5942 26.7284 17.2227 24.7029 17.2644 21.7212C17.2227 19.094 16.5674 17.2949 15.2895 16.3298ZM7.25307 5.47554C8.77219 5.47554 9.80877 5.74362 10.3598 6.27382C10.8781 6.77424 11.1492 7.68869 11.1819 9.00824C11.1492 10.5333 10.8722 11.5669 10.339 12.1001C9.77302 12.6661 8.63815 12.949 6.93137 12.949H5.77267V5.47554H7.25307ZM7.59562 25.2033H5.77565V17.1877H7.31562C9.04623 17.1877 10.1781 17.4468 10.7024 17.9681C11.1998 18.4566 11.459 19.4693 11.4858 20.9885C11.456 22.6297 11.2028 23.7378 10.7113 24.3037C10.193 24.9024 9.15346 25.2033 7.59264 25.2033H7.59562Z" fill="white"/>
<path d="M16.9099 7.9955C16.9099 8.08783 16.9099 8.17719 16.9069 8.26655C16.9069 8.36187 16.9099 8.45719 16.9099 8.55549V7.9955Z" fill="white"/>
<path d="M17.2674 21.9863V21.4055C17.2674 21.5127 17.2674 21.617 17.2644 21.7212C17.2644 21.8106 17.2674 21.897 17.2674 21.9863Z" fill="white"/>
<path d="M34.7343 1.23987H31.3565L24.9613 29.4419H30.5344L31.6931 23.3446H37.8381L38.9551 29.4419H44.5282L38.13 1.23987H34.7313H34.7343ZM32.4586 19.1476L34.7909 6.5151H34.7969L37.0875 19.1476H32.4586Z" fill="white"/>
<path d="M61.3309 29.8619C61.3309 29.8619 61.3249 29.8619 61.319 29.8619C61.316 29.8619 61.313 29.8619 61.31 29.8619H61.3309Z" fill="white"/>
<path d="M61.8909 0.819873C58.6143 0.819873 56.2463 1.67177 54.7957 3.37855C53.3421 5.08533 52.6093 7.86145 52.5974 11.7129V18.3881C52.6093 22.6655 53.2557 25.6471 54.5365 27.333C55.8144 29.016 58.0752 29.859 61.3219 29.8619C64.1964 29.847 67.1601 29.4747 70.2073 28.742V14.492H61.7717V18.6889H64.4287V25.1854C63.2164 25.4803 62.3377 25.6263 61.7896 25.6263C60.4045 25.6263 59.4871 25.1378 59.0403 24.1578C58.5935 23.1778 58.3701 21.1493 58.3701 18.0723V11.3971C58.3701 9.02612 58.6024 7.37593 59.0701 6.44956C59.5377 5.5232 60.3628 5.0615 61.5483 5.0615C62.5462 5.0615 63.2908 5.40107 63.7764 6.08021C64.2619 6.75935 64.4912 7.77805 64.4644 9.13931V9.97929H70.2014V9.13931C70.2937 6.36914 69.6473 4.29003 68.2622 2.90197C66.8772 1.51688 64.7504 0.822852 61.8879 0.822852L61.8909 0.819873Z" fill="white"/>
<path d="M88.6304 0.819873C85.3539 0.819873 82.9858 1.67177 81.5352 3.37855C80.0816 5.08533 79.3489 7.86145 79.337 11.7129V18.3881C79.3489 22.6655 79.9952 25.6471 81.2761 27.333C82.5539 29.016 84.8147 29.859 88.0615 29.8619C90.9359 29.847 93.8997 29.4747 96.9469 28.742V14.492H88.5113V18.6889H91.1682V25.1854C89.9559 25.4803 89.0772 25.6263 88.5291 25.6263C87.144 25.6263 86.2266 25.1378 85.7798 24.1578C85.333 23.1778 85.1096 21.1493 85.1096 18.0723V11.3971C85.1096 9.02612 85.3419 7.37593 85.8096 6.44956C86.2773 5.5232 87.1023 5.0615 88.2879 5.0615C89.2857 5.0615 90.0304 5.40107 90.5159 6.08021C91.0014 6.75935 91.2308 7.77805 91.204 9.13931V9.97929H96.9409V9.13931C97.0332 6.36914 96.3869 4.29003 95.0018 2.90197C93.6167 1.51688 91.4899 0.822852 88.6274 0.822852L88.6304 0.819873Z" fill="white"/>
<path d="M88.0704 29.8619C88.0704 29.8619 88.0645 29.8619 88.0585 29.8619C88.0555 29.8619 88.0525 29.8619 88.0496 29.8619H88.0704Z" fill="white"/>
<path d="M114.95 1.23987H111.572L105.177 29.4419H110.75L111.909 23.3446H118.054L119.171 29.4419H124.744L118.346 1.23987H114.947H114.95ZM112.674 19.1476L115.007 6.5151H115.013L117.303 19.1476H112.674Z" fill="white"/>
<path d="M142.33 12.672C140.879 11.9929 139.867 11.3405 139.295 10.712C138.708 10.0865 138.416 9.33292 138.416 8.45421C138.416 7.32232 138.663 6.47339 139.155 5.90447C139.646 5.33852 140.385 5.05555 141.368 5.05555C142.351 5.05555 143.063 5.36235 143.462 5.97596C143.861 6.58956 144.046 7.64103 144.019 9.13335V9.97333H149.714V8.51378C149.723 5.84787 149.145 3.91769 147.975 2.71729C146.723 1.45135 144.579 0.816895 141.541 0.816895C138.502 0.816895 136.37 1.49603 134.898 2.85431C133.427 4.21258 132.691 6.25893 132.691 8.99037C132.691 10.8282 133.239 12.3682 134.335 13.6073C135.428 14.8613 137.344 16.1332 140.09 17.426C141.663 18.1736 142.759 18.8796 143.387 19.5438C144.022 20.211 144.341 21.0034 144.341 21.9238C144.341 23.1629 144.081 24.0893 143.563 24.7029C143.045 25.3165 142.261 25.6233 141.21 25.6233C140.158 25.6233 139.333 25.2837 138.809 24.6046C138.285 23.9254 138.035 22.9067 138.061 21.5455V20.7055H132.366V21.8046C132.366 24.6552 133.036 26.7105 134.374 27.9705C135.711 29.2305 137.993 29.859 141.216 29.859C144.171 29.859 146.387 29.156 147.858 27.7501C149.33 26.3441 150.066 24.2293 150.066 21.4055C150.066 19.5259 149.491 17.9413 148.344 16.6485C147.2 15.3558 145.195 14.0303 142.336 12.672H142.33Z" fill="white"/>
<path d="M170.365 1.23987V12.8924H164.87V1.23987H159.091V29.4419H164.87V17.0894H170.365V29.4419H176.141V1.23987H170.365Z" fill="white"/>
<path d="M191.526 25.245V17.0894H199.562V12.8924H191.526V5.43682H199.842V1.23987H185.75V29.4419H200V25.245H191.526Z" fill="white"/>
</g>
</svg>
